<svg aria-hidden="true" style="width:0;height:0;position:absolute;overflow:hidden" xmlns="http://www.w3.org/2000/svg"><defs><symbol id="icon-github-svgr" viewBox="0 0 32 32"><path d="M16 0c8.837 0 16 7.344 16 16.405 0 7.246-4.579 13.394-10.933 15.565-.811.162-1.099-.35-1.099-.787 0-.541.019-2.307.019-4.502 0-1.53-.512-2.528-1.086-3.037 3.563-.406 7.307-1.794 7.307-8.094 0-1.792-.621-3.254-1.648-4.403.166-.414.715-2.083-.157-4.342 0 0-1.341-.44-4.395 1.682A15.023 15.023 0 0 0 16 7.935c-1.36.006-2.728.189-4.005.552-3.058-2.122-4.402-1.682-4.402-1.682-.869 2.259-.32 3.928-.155 4.342-1.022 1.149-1.648 2.611-1.648 4.403 0 6.285 3.736 7.693 7.29 8.107-.458.41-.872 1.133-1.016 2.194-.912.419-3.229 1.144-4.656-1.363 0 0-.846-1.576-2.453-1.691 0 0-1.56-.021-.109.997 0 0 1.048.504 1.776 2.4 0 0 .939 2.928 5.39 1.936.008 1.371.022 2.664.022 3.054 0 .434-.294.941-1.093.789C4.583 29.805-.001 23.655-.001 16.407c0-9.061 7.165-16.405 16-16.405z"/></symbol></defs></svg>