<svg aria-hidden="true" style="width:0;height:0;position:absolute;overflow:hidden" xmlns="http://www.w3.org/2000/svg"><defs><symbol id="icon-arrow-right" viewBox="0 0 32 32"><path stroke-linejoin="round" stroke-linecap="round" stroke-width="2.667" d="M6.667 16h18.667M16 25.333 25.333 16 16 6.667"/></symbol><symbol id="icon-arrow-left" viewBox="0 0 32 32"><path stroke-linejoin="round" stroke-linecap="round" stroke-width="2.667" d="M25.333 16H6.666M16 25.333 6.667 16 16 6.667"/></symbol><symbol id="icon-filmoteka" viewBox="0 0 32 32"><path fill="none" stroke="#fff" style="stroke:var(--color1,#fff)" stroke-linejoin="round" stroke-linecap="round" stroke-width="2.17" d="M26.427 2.667H5.574a2.907 2.907 0 0 0-2.907 2.907v20.853a2.907 2.907 0 0 0 2.907 2.907h20.853a2.907 2.907 0 0 0 2.907-2.907V5.574a2.907 2.907 0 0 0-2.907-2.907zM9.333 2.667v26.667M22.667 2.667v26.667M2.667 16h26.667M2.667 9.333h6.667M2.667 22.667h6.667M22.667 22.667h6.667M22.667 9.333h6.667"/></symbol><symbol id="icon-heart-group" viewBox="0 0 32 32"><path fill="#b92f2c" style="fill:var(--color2,#b92f2c)" d="m16 30.583-2.24-2.24C5.44 20.983 0 16.023 0 9.943c0-4.96 3.84-8.8 8.8-8.8 2.72 0 5.44 1.28 7.2 3.36 1.76-2.08 4.48-3.36 7.2-3.36 4.96 0 8.8 3.84 8.8 8.8 0 6.08-5.44 11.04-13.76 18.4L16 30.583z"/></symbol><symbol id="icon-search" fill="none" viewBox="0 0 14 14"><path d="M6.417 11.083a4.667 4.667 0 1 0 0-9.333 4.667 4.667 0 0 0 0 9.333Zm5.833 1.167L9.711 9.712"/></symbol><symbol id="icon-close" viewBox="0 0 30 30" fill="none"><path d="m8 8 14 14M8 22 22 8" stroke-width="2"/></symbol><symbol id="icon-circle-up" viewBox="0 0 32 32"><path d="M0 16c0 8.837 7.163 16 16 16s16-7.163 16-16S24.837 0 16 0 0 7.163 0 16zm29 0c0 7.18-5.82 13-13 13S3 23.18 3 16 8.82 3 16 3s13 5.82 13 13z"/><path d="m22.086 20.914 2.829-2.829-8.914-8.914-8.914 8.914 2.828 2.828 6.086-6.086z"/></symbol><symbol id="icon-moon" viewBox="0 0 32 32"><path d="M13.899 18.089a11.862 11.862 0 0 0 8.405 3.475c1.826 0 3.555-.411 5.101-1.146l-.072.031c-1.931 4.117-6.042 6.917-10.806 6.917-6.572 0-11.899-5.328-11.899-11.899 0-4.76 2.795-8.867 6.833-10.77l.073-.031a11.695 11.695 0 0 0-1.115 5.023c0 3.28 1.33 6.25 3.48 8.399z"/></symbol><symbol id="icon-Sun" viewBox="0 0 32 32"><path d="M24.5 16a8.5 8.5 0 1 1-17.001-.001A8.5 8.5 0 0 1 24.5 16z"/><path stroke-linecap="round" stroke-miterlimit="10" stroke-width="1.5" d="M16 2.5v3M16 26.5v3M29.5 16h-3M5.5 16h-3M25.545 6.455l-2.12 2.12M8.575 23.425l-2.12 2.12M25.545 25.545l-2.12-2.12M8.575 8.575l-2.12-2.12"/></symbol><symbol id="icon-play" viewBox="0 0 32 32"><path d="M16 0C7.163 0 0 7.163 0 16s7.163 16 16 16 16-7.163 16-16S24.837 0 16 0zm0 29C8.82 29 3 23.18 3 16S8.82 3 16 3s13 5.82 13 13-5.82 13-13 13zM12 9l12 7-12 7z"/></symbol><symbol id="icon-film" viewBox="0 0 32 32"><path d="M0 4v24h32V4H0zm6 22H2v-4h4v4zm0-8H2v-4h4v4zm0-8H2V6h4v4zm18 16H8V6h16v20zm6 0h-4v-4h4v4zm0-8h-4v-4h4v4zm0-8h-4V6h4v4zm-18 0v12l8-6z"/></symbol></defs></svg>