<svg aria-hidden="true" style="position: absolute; width: 0; height: 0; overflow: hidden;" version="1.1" xmlns="http://www.w3.org/2000/svg" xmlns:xlink="http://www.w3.org/1999/xlink">
<defs>
<symbol id="icon-linkedin-svg" viewBox="0 0 32 32">
<path fill="#0e76a8" style="fill: var(--color1, #0e76a8)" d="M16 0c8.837 0 16 7.164 16 16s-7.163 16-16 16-16-7.164-16-16 7.163-16 16-16z"></path>
<path fill="#fff" style="fill: var(--color2, #fff)" d="M9.016 21.984h2.996v-9.986h-2.996v9.986zM20.688 11.652c-1.454 0-2.755 0.531-3.678 1.703v-1.39h-3.007v10.019h3.007v-5.418c0-1.145 1.049-2.262 2.363-2.262s1.638 1.117 1.638 2.234v5.445h2.996v-5.668c-0-3.937-1.864-4.663-3.319-4.663zM10.5 11c0.828 0 1.5-0.672 1.5-1.5s-0.672-1.5-1.5-1.5-1.5 0.672-1.5 1.5 0.672 1.5 1.5 1.5z"></path>
</symbol>
</defs>
</svg>
